<svg xmlns="http://www.w3.org/2000/svg" width="173.488" height="117.913" viewBox="0 0 173.488 117.913">
  <g id="Group_379" data-name="Group 379" transform="translate(-781.694 -167.716)">
    <path id="Path_1363" data-name="Path 1363" d="M911.045,390.771a.4.4,0,0,1,.037.374q-.187.336-1.327.336t-1.327-.336a.3.3,0,0,1,.037-.374,2.013,2.013,0,0,1,.112-.262,3.3,3.3,0,0,0,.225-1.234l.037-8.785a.089.089,0,0,0-.075-.093.111.111,0,0,0-.112.019l-3.439,4.411a.853.853,0,0,1-.71.337.96.96,0,0,1-.748-.337l-3.4-4.411a.112.112,0,0,0-.112-.019.089.089,0,0,0-.075.093v8.748a3.3,3.3,0,0,0,.225,1.234,1.575,1.575,0,0,0,.15.3.4.4,0,0,1,.037.374q-.187.336-1.327.336t-1.327-.336a.4.4,0,0,1,.037-.374.848.848,0,0,0,.112-.262,2.89,2.89,0,0,0,.261-1.234V379.144a3.187,3.187,0,0,0-.225-1.2.825.825,0,0,0-.149-.3.372.372,0,0,1,0-.449,1.984,1.984,0,0,1,1.271-.262h.187a1.138,1.138,0,0,1,.935.486l.112.15,4.038,5.2,4.15-5.346a1.076,1.076,0,0,1,.935-.486h.149q1.046,0,1.271.262a.34.34,0,0,1,.037.449.8.8,0,0,0-.149.261,3.286,3.286,0,0,0-.225,1.234v10.094a3.476,3.476,0,0,0,.225,1.234,1.6,1.6,0,0,0,.149.3" transform="translate(-59.105 -106.429)" fill="#fff"/>
    <path id="Path_1364" data-name="Path 1364" d="M944.834,390.624a1.574,1.574,0,0,0,.15.3.4.4,0,0,1,.037.374q-.187.336-1.327.337t-1.327-.337a.4.4,0,0,1,.037-.374.853.853,0,0,0,.112-.262,2.888,2.888,0,0,0,.261-1.234V379.334a3.284,3.284,0,0,0-.225-1.234,1.7,1.7,0,0,0-.149-.3.412.412,0,0,1-.037-.374q.186-.336,1.327-.337t1.327.337a.413.413,0,0,1-.037.374.792.792,0,0,0-.15.262,3.293,3.293,0,0,0-.225,1.233v10.094a3.3,3.3,0,0,0,.225,1.234" transform="translate(-81.717 -106.507)" fill="#fff"/>
    <path id="Path_1365" data-name="Path 1365" d="M975.291,389.125a.893.893,0,0,1,.356.767.868.868,0,0,1-.43.729,6.785,6.785,0,0,1-3.85,1.047,8.08,8.08,0,0,1-1.084-.075q-1.758-.186-2.729-.187a4.284,4.284,0,0,1-.9.075q-1.122,0-1.308-.337a.4.4,0,0,1,.037-.373.519.519,0,0,0,.112-.262,2.886,2.886,0,0,0,.262-1.233V379.181a3.287,3.287,0,0,0-.225-1.234,1.7,1.7,0,0,0-.149-.3.412.412,0,0,1-.037-.374q.186-.337,1.327-.337t1.327.337a.414.414,0,0,1-.037.374.781.781,0,0,0-.15.261,3.3,3.3,0,0,0-.225,1.234v10.094a.3.3,0,0,0,.3.336q.971.038,2.579.187a5.468,5.468,0,0,0,3.738-.673.917.917,0,0,1,1.084.037" transform="translate(-93.407 -106.429)" fill="#fff"/>
    <path id="Path_1366" data-name="Path 1366" d="M855.586,223.482a57.838,57.838,0,0,0,6.872-11.052A29.606,29.606,0,0,0,864.2,207q.144-.687.22-1.329a18.779,18.779,0,0,0-.015-6.461,13.1,13.1,0,0,0-2.414-5.293,9.084,9.084,0,0,0-4.837-2.873,9.68,9.68,0,0,0-4.075.039,6.13,6.13,0,0,0-2.773,1.808,13.651,13.651,0,0,0-1.787,3.092,23.511,23.511,0,0,0-1.188,3.936l-.5,2.944a7.842,7.842,0,0,0,.147,2.423,4.395,4.395,0,0,0,1.082,1.962,5.563,5.563,0,0,0,2.525,1.071,3.831,3.831,0,0,0,2.17-.082,10.986,10.986,0,0,0,2.2-.792l-.139.09q.057.012,2.053-.943a3.507,3.507,0,0,1,1.646-.43l.228.048q.8.169.769,1.179a2.82,2.82,0,0,1-.066.883,8.618,8.618,0,0,1-.8,2.1,41.864,41.864,0,0,1-5.456,7.164A65.046,65.046,0,0,1,845,224.9a75.061,75.061,0,0,1-10.043,6.8,66.023,66.023,0,0,1-11.209,5.234,53.89,53.89,0,0,1-11.794,2.9,33.835,33.835,0,0,1-11.4-.368,27.023,27.023,0,0,1-5.627-1.963,14.058,14.058,0,0,1-4.5-3.339,11.113,11.113,0,0,1-2.661-4.688,12.357,12.357,0,0,1-.1-6.061,15.975,15.975,0,0,1,3.6-7.436,24.723,24.723,0,0,1,6.743-5.038,54.387,54.387,0,0,1,9.069-3.592q3.29-.862,10.277-2.8,6.3-1.783,10.673-3.255a59.77,59.77,0,0,0,10.326-4.164,49.5,49.5,0,0,0,8.891-6.44,32.484,32.484,0,0,0,6.855-9.261q.587-1.371,1.553-3.68l1.031-3.192a2.659,2.659,0,0,0-.211-1.838,2.862,2.862,0,0,0-.835-1.432,5.329,5.329,0,0,0-1.351-1.54,9.365,9.365,0,0,0-1.709-1.256,5.629,5.629,0,0,0-1.76-.73,2.042,2.042,0,0,0-1.866.624,9.925,9.925,0,0,0-1.709,2.151c-.533.929-.944,1.679-1.238,2.258.024-.034.044-.057.056-.055q-.036.172-1.2,2.857l-.085.4.045.069-.262-.175,1.357.943c.213.125.512.308.9.549q.524.35.845.537a3.677,3.677,0,0,0,.775.582q.511.407.762.639a3.43,3.43,0,0,1,1,1.226,1.19,1.19,0,0,1,.163.932,1.758,1.758,0,0,1-.027.413.456.456,0,0,1-.256.365,25.053,25.053,0,0,1-6.945,7.986,44.208,44.208,0,0,1-9.154,5.129,81.153,81.153,0,0,1-10.365,3.5q-3.718.891-10.989,2.769-5.916,1.685-10.329,3.327a34.554,34.554,0,0,0-9.171,4.647,26.361,26.361,0,0,0-7.1,7.3,24.051,24.051,0,0,0-3.683,8.972q-.193.915-.341,1.9a17.519,17.519,0,0,0,.343,8.027,16.391,16.391,0,0,0,3.55,6.429,19.38,19.38,0,0,0,5.7,4.729,26.513,26.513,0,0,0,7.305,2.795,35.323,35.323,0,0,0,11.691.428,57.268,57.268,0,0,0,12.276-2.916,73.914,73.914,0,0,0,12.086-5.707,77.276,77.276,0,0,0,20.635-17.9" fill="#fff"/>
    <path id="Path_1367" data-name="Path 1367" d="M912.341,178.044a3.327,3.327,0,0,0-.237.481c.067-.143.148-.306.237-.481" transform="translate(-66.338 -5.254)" fill="#fff"/>
    <path id="Path_1368" data-name="Path 1368" d="M1021.4,211.534a17.905,17.905,0,0,0-.793-3.309,23.78,23.78,0,0,1-.711-3.758q-.256-2.155-.412-4.807l-1.056-.468a13.981,13.981,0,0,0-2.1,1.271c-.914.635-14.867,8.771-17.219,10.595q-5.1,4.083-9.807,4.362a16.77,16.77,0,0,1-7.791-1.089c-.083-.037-.168-.064-.252-.1a15.423,15.423,0,0,0-1.344-1.384,7.422,7.422,0,0,1-.326-.806q.17-.892,1.016-3.732.214-1.39.312-1.863c.043-.541-.092-.888-.409-1.04q-.632-.3-1.222.515-.64.926-1.382,2.063-.563.9-1.9,2.725a11.133,11.133,0,0,1-2.71,2.527,8.065,8.065,0,0,1-3.75,1.314,13.919,13.919,0,0,1-5.977-1.256,8.234,8.234,0,0,1-3.164-4.31,30.14,30.14,0,0,1-1.168-6.212c-.086-2.25.335-15.181.438-17.555q.5-5.217.662-6.371.485-4.246.475-4.9.155-1.809-.266-2.011-.6-.1-.959.643l-1.271,2.506q-.865,1.663-1.3,2.559l-2.461,5.116a5.16,5.16,0,0,0-.579,1.474q0,.131-.1,1.834c-.116,2.671-.574,15.542-.547,17.374q-.025.052-.329,7.569a60.322,60.322,0,0,1-1.088,7.528,43.646,43.646,0,0,1-2.038,7.072l-.685,1.424a51.072,51.072,0,0,1-3.442,6.064c.064-.294.125-.581.182-.858a32.341,32.341,0,0,0,.694-5.395,25.183,25.183,0,0,0-.259-4.466q-.326-2.17-.831-4.893l-3.243-16.512q-.945-4.842-1.344-7.99a32.6,32.6,0,0,1-.35-4.658l-1.876-.06a44.478,44.478,0,0,0-1.129,19.011l3.357,19.021q.88,5.26,1.238,8.586a24.391,24.391,0,0,1,.166,2.883,37.983,37.983,0,0,1-6.019,6.006c-2.808,2.416-8.8,7.4-23.8,5.468-1.863-.24,1.13,5.574,2.1,6.433a8.325,8.325,0,0,0,1.267.739,21.294,21.294,0,0,0,3.317,1.206,16.247,16.247,0,0,0,8.947-.241,24.034,24.034,0,0,0,8.046-4.441,35.107,35.107,0,0,0,7.035-7.2q3.589-4.9,5.914-8.65,2.523-4.435,4.452-8.443,1.744-4.033,2.981-7.009a7.362,7.362,0,0,0,2.173,1.56l0,0,.035.015.017.01h0a13.6,13.6,0,0,0,4.654,1.4,24.128,24.128,0,0,0,3.474-.472,17.5,17.5,0,0,0,3.069-1.251q1.739-.917,2.753-1.4a6.569,6.569,0,0,1,1.084.716,22.183,22.183,0,0,0,2.8,1.6l-.08.167a7.926,7.926,0,0,0,4.9.475c.508-.128.989-.274,1.454-.43-.046-.041-.085-.085-.13-.127.151-.043.3-.079.453-.13a51.754,51.754,0,0,0,8.41-3.96q3.5-2,6.485-3.47t4.366-.86a10.8,10.8,0,0,1,2.613,1.751,24.069,24.069,0,0,1,2.882,3.052,3.074,3.074,0,0,0,.92.784c.342.189.7.366,1.083.535a4.867,4.867,0,0,0,4.175-.354,15.229,15.229,0,0,0,4.411-3.26,10.354,10.354,0,0,0,2.624-4.214,5.908,5.908,0,0,0,.18-2.232" transform="translate(-66.248 -2.142)" fill="#fff"/>
    <path id="Path_1369" data-name="Path 1369" d="M1030.142,298.5l-.665-.086a14.343,14.343,0,0,0-2.886,2.034q-2.086,1.714-3.82,3.351a9.12,9.12,0,0,0-1.869-2.527,38.015,38.015,0,0,0-3.19-2.783l-.748-.1a9.963,9.963,0,0,0-2.365,1.594q-1.654,1.349-3.333,2.864t-2.567,2.5l-.1.749q1.492,1.545,2.995,3.308t3.1,3.828l.748.1q5.726-3.061,7.237-5.57a66.142,66.142,0,0,1,4.695,5.517l.748.1q7.269-3.874,7.682-7.034a4.745,4.745,0,0,0-1.193-3.5,28.994,28.994,0,0,0-4.467-4.345" transform="translate(-115.425 -66.474)" fill="#fff"/>
    <path id="Path_1370" data-name="Path 1370" d="M1008.839,391.678a.36.36,0,0,1,.075.373q-.15.262-.86.3v.037h-1.084a1.094,1.094,0,0,1-.412-.075.9.9,0,0,1-.523-.524v-.037l-1.346-3.365a.344.344,0,0,0-.187-.187,6.31,6.31,0,0,0-2.43.337,10.958,10.958,0,0,1-2.617.486,2.719,2.719,0,0,1-.785-.112.152.152,0,0,0-.15.075l-1.2,2.841a.9.9,0,0,1-.524.524.738.738,0,0,1-.336.075.992.992,0,0,1-.374-.075.915.915,0,0,1-.486-.5.926.926,0,0,1,0-.729l5.234-12.861a.846.846,0,0,1,.86-.6h.037a.888.888,0,0,1,.86.6q0,.038,1.14,2.86t2.3,5.683q1.159,2.859,1.234,3.047a3.2,3.2,0,0,0,1.346,1.608l.037-.187.15.3a.3.3,0,0,1,.037.112M999.307,387l-.037.037a.162.162,0,0,0,.019.075.059.059,0,0,0,.056.037,8.526,8.526,0,0,0,2.244-.411,12.366,12.366,0,0,1,2.168-.411c.024,0,.049-.025.075-.075l-2.094-5.122h-.037q-2.282,5.571-2.393,5.869" transform="translate(-108.776 -106.795)" fill="#fff"/>
    <path id="Path_1371" data-name="Path 1371" d="M1044.368,378.749v.224q0,1.159-.337,1.346a.4.4,0,0,1-.373-.037.844.844,0,0,0-.262-.15,3.3,3.3,0,0,0-1.234-.224h-4.636c-.149,0-.224.062-.224.187v3.1a.192.192,0,0,0,.187.187,4.747,4.747,0,0,1,1.981.373,3.094,3.094,0,0,0,2.8.075.826.826,0,0,1,.692-.131.916.916,0,0,1,.561.43.844.844,0,0,1,.094.71.957.957,0,0,1-.411.561,4.311,4.311,0,0,1-2.206.523,6,6,0,0,1-2.243-.449,2.143,2.143,0,0,0-1.2-.225.231.231,0,0,0-.261.262v4.823a3.5,3.5,0,0,0,.224,1.234,1.62,1.62,0,0,0,.15.3.337.337,0,0,1,.037.337q-.187.336-1.327.336t-1.327-.336a.337.337,0,0,1,.037-.337.82.82,0,0,0,.112-.261,3.144,3.144,0,0,0,.262-1.271V380.282a3.3,3.3,0,0,0-.224-1.234,1.718,1.718,0,0,0-.15-.3.4.4,0,0,1-.075-.225.3.3,0,0,1,.075-.224,1.983,1.983,0,0,1,1.271-.262h7.253a.687.687,0,0,1,.5.206.847.847,0,0,1,.243.5" transform="translate(-128.865 -106.989)" fill="#fff"/>
  </g>
</svg>
